<svg width="189" height="70" viewBox="0 0 189 70" fill="none" xmlns="http://www.w3.org/2000/svg">
    <path d="M54.5242 5.96106C55.2104 6.42383 55.8763 6.90589 56.5221 7.40722L50.9823 15.0487C50.3404 14.5339 49.6754 14.048 48.9844 13.6026L54.5242 5.96106Z" fill="#5555EA"></path>
    <path d="M54.5242 5.96106C55.2104 6.42383 55.8763 6.90589 56.5221 7.40722L50.9823 15.0487C50.3404 14.5339 49.6754 14.048 48.9844 13.6026L54.5242 5.96106Z" fill="#ffffff"></path>
    <path d="M21.2617 2.79692L24.1935 11.8181C26.0766 10.936 28.0617 10.2909 30.1034 9.89752L27.1745 0.879272C25.1502 1.34023 23.1713 1.98204 21.2617 2.79692Z" fill="#5555EA"></path>
    <path d="M21.2617 2.79692L24.1935 11.8181C26.0766 10.936 28.0617 10.2909 30.1034 9.89752L27.1745 0.879272C25.1502 1.34023 23.1713 1.98204 21.2617 2.79692Z" fill="#ffffff"></path>
    <path d="M41.8164 10.3574C42.5363 10.557 43.2447 10.7826 43.9357 11.0429L46.8502 2.07672C46.1544 1.82605 45.4479 1.59655 44.7309 1.38831L41.8164 10.3574Z" fill="#5555EA"></path>
    <path d="M41.8164 10.3574C42.5363 10.557 43.2447 10.7826 43.9357 11.0429L46.8502 2.07672C46.1544 1.82605 45.4479 1.59655 44.7309 1.38831L41.8164 10.3574Z" fill="#ffffff"></path>
    <path d="M12.7831 22.3287C13.7117 20.6992 14.816 19.1765 16.0763 17.7878L8.42298 12.2258C7.20264 13.6466 6.09846 15.1632 5.12109 16.761L12.7831 22.3287Z" fill="#5555EA"></path>
    <path d="M12.7831 22.3287C13.7117 20.6992 14.816 19.1765 16.0763 17.7878L8.42298 12.2258C7.20264 13.6466 6.09846 15.1632 5.12109 16.761L12.7831 22.3287Z" fill="#ffffff"></path>
    <path d="M17.6742 16.1854C19.1269 14.849 20.7287 13.6844 22.4477 12.7146L16.879 5.04993C15.1937 6.07133 13.5969 7.23233 12.1055 8.52071L17.6742 16.1854Z" fill="#5555EA"></path>
    <path d="M17.6742 16.1854C19.1269 14.849 20.7287 13.6844 22.4477 12.7146L16.879 5.04993C15.1937 6.07133 13.5969 7.23233 12.1055 8.52071L17.6742 16.1854Z" fill="#ffffff"></path>
    <path d="M67.794 22.8088L58.8164 25.73C59.1661 26.6253 59.4644 27.5399 59.7098 28.4691L68.6729 25.5479C68.4127 24.6165 68.1159 23.7035 67.7824 22.8088" fill="#5555EA"></path>
    <path d="M67.794 22.8088L58.8164 25.73C59.1661 26.6253 59.4644 27.5399 59.7098 28.4691L68.6729 25.5479C68.4127 24.6165 68.1159 23.7035 67.7824 22.8088" fill="#ffffff"></path>
    <path d="M9.41993 35C9.41993 34.1323 9.46619 33.3022 9.54715 32.4692H0.0925201C0.0318023 33.3051 0 34.1468 0 35C0 35.8533 0.0318023 36.6949 0.0925201 37.5308H9.54715C9.46619 36.6978 9.41993 35.8533 9.41993 35Z" fill="#5555EA"></path>
    <path d="M9.41993 35C9.41993 34.1323 9.46619 33.3022 9.54715 32.4692H0.0925201C0.0318023 33.3051 0 34.1468 0 35C0 35.8533 0.0318023 36.6949 0.0925201 37.5308H9.54715C9.46619 36.6978 9.41993 35.8533 9.41993 35Z" fill="#ffffff"></path>
    <path d="M60.551 35C60.551 35.5351 60.5308 36.0673 60.4961 36.5937H69.9363C69.9594 36.0673 69.9739 35.5351 69.9739 35C69.9739 34.4649 69.9594 33.9327 69.9363 33.4034H60.4961C60.5308 33.9327 60.551 34.462 60.551 35Z" fill="#5555EA"></path>
    <path d="M60.551 35C60.551 35.5351 60.5308 36.0673 60.4961 36.5937H69.9363C69.9594 36.0673 69.9739 35.5351 69.9739 35C69.9739 34.4649 69.9594 33.9327 69.9363 33.4034H60.4961C60.5308 33.9327 60.551 34.462 60.551 35Z" fill="#ffffff"></path>
    <path d="M9.98116 29.6724C10.3504 27.9299 10.9028 26.2313 11.6292 24.605L2.62563 21.678C1.94901 23.3237 1.39902 25.0187 0.980469 26.7482L9.98116 29.6724Z" fill="#5555EA"></path>
    <path d="M9.98116 29.6724C10.3504 27.9299 10.9028 26.2313 11.6292 24.605L2.62563 21.678C1.94901 23.3237 1.39902 25.0187 0.980469 26.7482L9.98116 29.6724Z" fill="#ffffff"></path>
    <path d="M54.8438 18.8985C55.4185 19.6079 55.9552 20.3475 56.4513 21.114L64.0902 15.5636C63.5852 14.802 63.0503 14.0635 62.4855 13.3481L54.8438 18.8985Z" fill="#5555EA"></path>
    <path d="M54.8438 18.8985C55.4185 19.6079 55.9552 20.3475 56.4513 21.114L64.0902 15.5636C63.5852 14.802 63.0503 14.0635 62.4855 13.3481L54.8438 18.8985Z" fill="#ffffff"></path>
    <path d="M31.7188 0.153286V9.64012C32.8034 9.50224 33.8954 9.4298 34.9888 9.4232C36.0825 9.42331 37.1749 9.49578 38.2589 9.64012V0.153286C37.724 0.104117 36.3998 -1.52901e-05 34.9888 -1.52901e-05C33.8969 -0.00514793 32.8054 0.0460261 31.7188 0.153286Z" fill="#5555EA"></path>
    <path d="M31.7188 0.153286V9.64012C32.8034 9.50224 33.8954 9.4298 34.9888 9.4232C36.0825 9.42331 37.1749 9.49578 38.2589 9.64012V0.153286C37.724 0.104117 36.3998 -1.52901e-05 34.9888 -1.52901e-05C33.8969 -0.00514793 32.8054 0.0460261 31.7188 0.153286Z" fill="#ffffff"></path>
    <path d="M51.6703 54.3699C50.7295 55.1813 49.7313 55.9237 48.6836 56.5912L54.2436 64.2211C55.28 63.5388 56.279 62.8012 57.2361 62.0114L51.6703 54.3699Z" fill="#5555EA"></path>
    <path d="M51.6703 54.3699C50.7295 55.1813 49.7313 55.9237 48.6836 56.5912L54.2436 64.2211C55.28 63.5388 56.279 62.8012 57.2361 62.0114L51.6703 54.3699Z" fill="#ffffff"></path>
    <path d="M11.5201 45.155C10.8813 43.6805 10.3846 42.1483 10.0369 40.5793L1.03906 43.5035C1.42872 45.0611 1.92528 46.5899 2.5252 48.0791L11.5201 45.155Z" fill="#5555EA"></path>
    <path d="M11.5201 45.155C10.8813 43.6805 10.3846 42.1483 10.0369 40.5793L1.03906 43.5035C1.42872 45.0611 1.92528 46.5899 2.5252 48.0791L11.5201 45.155Z" fill="#ffffff"></path>
    <path d="M44.6366 58.6853C43.487 59.1574 42.3041 59.5441 41.0977 59.8422L44.0179 68.8286C45.2172 68.5059 46.3985 68.1197 47.5569 67.6717L44.6366 58.6853Z" fill="#5555EA"></path>
    <path d="M44.6366 58.6853C43.487 59.1574 42.3041 59.5441 41.0977 59.8422L44.0179 68.8286C45.2172 68.5059 46.3985 68.1197 47.5569 67.6717L44.6366 58.6853Z" fill="#ffffff"></path>
    <path d="M59.7742 41.3053C59.497 42.3877 59.1483 43.4506 58.7305 44.4869L67.7109 47.411C68.108 46.3659 68.454 45.3006 68.7489 44.215L59.7742 41.3053Z" fill="#5555EA"></path>
    <path d="M59.7742 41.3053C59.497 42.3877 59.1483 43.4506 58.7305 44.4869L67.7109 47.411C68.108 46.3659 68.454 45.3006 68.7489 44.215L59.7742 41.3053Z" fill="#ffffff"></path>
    <path d="M56.666 48.5564C56.044 49.5596 55.3542 50.5192 54.6016 51.4285L62.2404 56.973C62.9813 56.0553 63.6752 55.1006 64.3193 54.1125L56.666 48.5564Z" fill="#5555EA"></path>
    <path d="M56.666 48.5564C56.044 49.5596 55.3542 50.5192 54.6016 51.4285L62.2404 56.973C62.9813 56.0553 63.6752 55.1006 64.3193 54.1125L56.666 48.5564Z" fill="#ffffff"></path>
    <path d="M16.2142 64.5393L21.7684 56.8949C20.5299 56.1412 19.3567 55.285 18.2613 54.3352L12.707 61.9854C13.823 62.9074 14.9942 63.7603 16.2142 64.5393Z" fill="#5555EA"></path>
    <path d="M16.2142 64.5393L21.7684 56.8949C20.5299 56.1412 19.3567 55.285 18.2613 54.3352L12.707 61.9854C13.823 62.9074 14.9942 63.7603 16.2142 64.5393Z" fill="#ffffff"></path>
    <path d="M15.7349 51.8159C14.7297 50.6673 13.8288 49.4312 13.0431 48.1224L5.39844 53.6815C6.21291 54.9695 7.11014 56.2033 8.08447 57.375L15.7349 51.8159Z" fill="#5555EA"></path>
    <path d="M15.7349 51.8159C14.7297 50.6673 13.8288 49.4312 13.0431 48.1224L5.39844 53.6815C6.21291 54.9695 7.11014 56.2033 8.08447 57.375L15.7349 51.8159Z" fill="#ffffff"></path>
    <path d="M29.0713 59.8798C27.7322 59.5638 26.4209 59.1391 25.1507 58.6101L22.2305 67.5994C23.511 68.101 24.8201 68.526 26.1511 68.8721L29.0713 59.8798Z" fill="#5555EA"></path>
    <path d="M29.0713 59.8798C27.7322 59.5638 26.4209 59.1391 25.1507 58.6101L22.2305 67.5994C23.511 68.101 24.8201 68.526 26.1511 68.8721L29.0713 59.8798Z" fill="#ffffff"></path>
    <path d="M36.9451 69.9393V60.4901C36.2974 60.5393 35.6469 60.5711 34.9877 60.5711C34.3284 60.5711 33.675 60.5393 33.0273 60.4901V69.9393C33.6779 69.9769 34.3284 69.9971 34.9877 69.9971C35.6469 69.9971 36.2974 69.9769 36.9451 69.9393Z" fill="#5555EA"></path>
    <path d="M36.9451 69.9393V60.4901C36.2974 60.5393 35.6469 60.5711 34.9877 60.5711C34.3284 60.5711 33.675 60.5393 33.0273 60.4901V69.9393C33.6779 69.9769 34.3284 69.9971 34.9877 69.9971C35.6469 69.9971 36.2974 69.9769 36.9451 69.9393Z" fill="#ffffff"></path>
    <path d="M30.9226 20.0669C30.4488 20.1933 29.9817 20.3438 29.5232 20.5181L26.8748 12.382C27.3345 12.2171 27.8029 12.0696 28.2742 11.9308L30.9226 20.0669ZM34.9878 10.9648C34.4096 10.9648 33.8313 10.9937 33.2791 11.0313V19.6128C34.4147 19.4855 35.561 19.4855 36.6966 19.6128V11.0255C36.1183 10.9879 35.5632 10.959 34.9878 10.959M43.9712 12.6944C42.9449 12.2791 41.8908 11.936 40.8167 11.6676L38.1654 19.8355C39.2499 20.0629 40.3066 20.4072 41.3169 20.8623L43.9712 12.6944ZM50.3755 16.5296C49.5501 15.844 48.6809 15.2131 47.7733 14.6409L42.7279 21.5825C43.6589 22.1194 44.531 22.7524 45.3301 23.4712L50.3755 16.5296ZM21.5143 15.0834C21.0806 15.3727 20.6469 15.6908 20.245 16.0148L25.2759 22.939C25.685 22.6091 26.1106 22.3002 26.551 22.0134L21.5143 15.0834ZM55.2965 22.1494C54.742 21.2713 54.1317 20.4298 53.4692 19.6302L46.53 24.6773C47.2227 25.4527 47.8358 26.2957 48.3602 27.1936L55.2965 22.1494ZM11.8833 28.3939L20.0252 31.0375C20.1766 30.4642 20.361 29.9002 20.5775 29.3483L12.4268 26.7019C12.2244 27.2572 12.0452 27.8212 11.8833 28.3939ZM50.3899 36.4374H58.9656C58.9945 35.9573 59.0118 35.4743 59.0118 34.9913C59.0118 34.5082 58.9945 34.0194 58.9656 33.5451H50.3899C50.4333 34.0252 50.4593 34.5082 50.4593 34.9913C50.4593 35.4743 50.4333 35.966 50.3899 36.4374ZM16.0728 20.1913C15.7287 20.628 15.3962 21.0763 15.0811 21.5391L22.0202 26.5746C22.3236 26.1046 22.6528 25.6517 23.0062 25.2181L16.0728 20.1913ZM19.5424 34.0744H10.9841C10.9841 34.3868 10.9609 34.6992 10.9609 35.0144C10.9609 35.3297 10.9609 35.642 10.9841 35.9544H19.5453C19.5279 35.642 19.5164 35.3297 19.5164 35.0144C19.5164 34.6992 19.5164 34.3839 19.5453 34.0744M19.9934 53.7856C20.5717 54.2425 21.15 54.6736 21.76 55.0756L26.7938 48.134C26.1758 47.7454 25.5856 47.3143 25.0272 46.844L19.9934 53.7856ZM26.4873 57.4964C27.1957 57.7654 27.933 57.9997 28.6645 58.2021L31.313 50.0487C30.5708 49.8677 29.8431 49.6318 29.1358 49.343L26.4873 57.4964ZM14.9539 48.2757C15.3384 48.8542 15.749 49.4182 16.1798 49.9619L23.1189 44.9264C22.6727 44.3924 22.264 43.8279 21.8959 43.2373L14.9539 48.2757ZM11.8544 41.4961C12.0317 42.1363 12.2341 42.7658 12.4615 43.3848L20.6122 40.7354C20.3667 40.1217 20.161 39.4927 19.9963 38.8525L11.8544 41.4961ZM34.9849 59.0496C35.3868 59.0496 35.7829 59.0496 36.1819 59.0178V50.4392C35.7858 50.471 35.3868 50.4912 34.9849 50.4912C34.583 50.4912 34.184 50.471 33.7879 50.4392V59.0178C34.184 59.038 34.583 59.0496 34.9849 59.0496ZM58.2601 29.0302C58.0081 28.058 57.6952 27.1026 57.3233 26.1697L49.164 28.822C49.5669 29.7435 49.8778 30.7026 50.0921 31.6853L58.2601 29.0302ZM41.2013 58.2427C42.0042 58.0258 42.7955 57.768 43.5722 57.4704L40.9237 49.3169C40.1547 49.6368 39.3608 49.8932 38.5499 50.0834L41.2013 58.2427ZM57.3551 43.7811C57.6965 42.911 57.9862 42.0215 58.2225 41.1172L50.0603 38.462C49.8531 39.3765 49.5627 40.2701 49.1929 41.1316L57.3551 43.7811ZM53.5964 50.231C54.1651 49.5324 54.6941 48.8023 55.1808 48.0443L48.2417 43.0059C47.7752 43.7771 47.2431 44.5068 46.6514 45.1867L53.5964 50.231ZM48.0364 55.1884C48.7637 54.7171 49.4654 54.2073 50.1384 53.6612L45.0988 46.7196C44.4429 47.2881 43.7408 47.8008 42.9997 48.2526L48.0364 55.1884Z" fill="#ffffff"></path>
    <g transform="translate(0, -7.5)">
    <path d="M86.9089 28.6195H82.0312V56.7849H86.9089V28.6195Z" fill="#ffffff"></path>
    <path d="M92.6133 42.87C92.6133 34.3868 99.0436 27.9543 107.359 27.9543C112.179 27.9543 116.669 30.0628 119.384 33.9443L115.504 36.8829C113.234 33.8315 110.406 32.3911 107.301 32.3911C101.926 32.3911 97.6586 36.6602 97.6586 42.7052C97.6586 48.8572 102.036 53.0163 107.359 53.0163C110.794 53.0163 113.899 51.2982 116.059 48.3047L119.774 51.0206C117.057 55.1248 112.511 57.4531 107.301 57.4531C98.821 57.4531 92.6133 51.2982 92.6133 42.87Z" fill="#ffffff"></path>
    <path d="M151.202 43.8129H127.701C128.089 49.7451 132.024 53.1291 137.676 53.1291C141.502 53.1291 144.616 51.5759 146.989 48.3596L150.479 51.0206C147.764 55.0699 143.219 57.4531 137.567 57.4531C128.754 57.4531 122.711 51.521 122.711 42.925C122.711 34.1642 129.031 27.9543 137.621 27.9543C145.659 27.9543 151.367 33.4497 151.367 41.7044C151.373 42.4107 151.318 43.1162 151.202 43.8129ZM127.976 39.5988H146.379C145.659 34.7195 142.444 32.1684 137.621 32.1684C132.689 32.1684 129.086 34.8872 127.976 39.5988Z" fill="#ffffff"></path>
    <path d="M155.19 52.9613L158.293 49.3025C160.852 51.6919 164.215 53.0337 167.715 53.0625C171.474 53.0625 173.758 51.3445 173.758 49.0133C173.758 47.3502 172.538 46.0197 168.936 45.1867L164.003 44.079C158.348 42.8035 155.965 40.3624 155.965 36.5387C155.965 31.4367 160.178 27.9427 166.773 27.9427C171.318 27.9427 175.531 29.5509 178.191 32.4345L174.921 35.8156C173.816 34.692 172.495 33.8045 171.037 33.2069C169.579 32.6093 168.016 32.314 166.44 32.3391C162.728 32.3391 160.733 33.8893 160.733 36.1656C160.733 37.8287 161.785 38.8815 165.666 39.7694L170.598 40.8772C176.306 42.1527 178.523 44.7587 178.523 48.6402C178.523 53.9071 174.475 57.456 167.536 57.456C162.713 57.456 157.995 55.738 155.176 52.9642" fill="#ffffff"></path>
    <path d="M188.999 28.6195H184.121V56.7849H188.999V28.6195Z" fill="#ffffff"></path>
  </g>
  <defs>
    <clipPath id="clip0_22580_155634">
      <rect width="189" height="70" fill="#ffffff"></rect>
    </clipPath>
  </defs>
</svg>
